# xmcd CD database file
#
# Track frame offsets:
#	150
#	18422
#	39039
#	50887
#	66692
#	90754
#	115137
#	133663
#	154963
#	179020
#	198987
#	218020
#	227523
#	248773
#	273845
#
# Disc length: 3971 seconds
#
# Revision: 1
# Processed by: cddbd v1.5.2PL0 Copyright (c) Steve Scherf et al.
# Submitted via: CDex 1.70beta2
#
DISCID=cd0f810f
DTITLE=Linea Blu - Il Meglio Del Blu 2
DYEAR=2002
DGENRE=New Age
TTITLE0=Ethnic Flower
TTITLE1=Mountains
TTITLE2=Estiva
TTITLE3=Orizzonti
TTITLE4=Sub Piano
TTITLE5=Enigmatik
TTITLE6=Etnoblues
TTITLE7=Etnoblues
TTITLE8=Deepest
TTITLE9=Tribal Disco
TTITLE10=Always
TTITLE11=La Donna Dello Sceicco
TTITLE12=Mar Rosso
TTITLE13=Etnimusa
TTITLE14=Calabrina
EXTD=YEAR: 2002
EXTT0=
EXTT1=
EXTT2=
EXTT3=
EXTT4=
EXTT5=
EXTT6=
EXTT7=
EXTT8=
EXTT9=
EXTT10=
EXTT11=
EXTT12=
EXTT13=
EXTT14=
PLAYORDER=
